# xmcd
#
# Track frame offsets: 
#        150
#        7425
#        17908
#        34470
#        48353
#        58575
#        81517
#        92606
#        98573
#        112646
#        129113
#        148581
#
# Disc length: 2200 seconds
#
# Revision: 0
# Processed by: cddbd v1.5.2PL0 Copyright (c) Steve Scherf et al.
# Submitted via: ExactAudioCopyFreeDBPlugin 1.0
#
DISCID=9808960c
DTITLE=Mally - The Last Great...
DYEAR=2012
DGENRE=Hip-Hop/Rap
TTITLE0=Take Off (Intro)
TTITLE1=Swallowing the Reign
TTITLE2=Shine
TTITLE3=The Renaissance 2.0 (ft. Claire De Lune)
TTITLE4=Winner
TTITLE5=Good One (ft. K. Raydio)
TTITLE6=Hands High
TTITLE7=In God We Trust
TTITLE8=Bounce (ft. Truth Be Told)
TTITLE9=Unplugged (ft. Brother Ali)
TTITLE10=My Lord
TTITLE11=The Last Great
EXTD=
EXTT0=
EXTT1=
EXTT2=
EXTT3=
EXTT4=
EXTT5=
EXTT6=
EXTT7=
EXTT8=
EXTT9=
EXTT10=
EXTT11=
PLAYORDER=
